<?xml version="1.0" encoding="UTF-8"?>
<svg xmlns="http://www.w3.org/2000/svg" xmlns:xlink="http://www.w3.org/1999/xlink" width="28px" height="28px" viewBox="0 0 28 28" version="1.1">
<g id="surface1">
<path style=" stroke:none;fill-rule:nonzero;fill:rgb(11.764706%,19.215686%,31.372549%);fill-opacity:1;" d="M 6.707031 3.5 C 4.9375 3.507812 3.507812 4.9375 3.5 6.707031 L 3.5 21.292969 C 3.507812 23.0625 4.9375 24.492188 6.707031 24.5 L 21.292969 24.5 C 23.0625 24.492188 24.492188 23.0625 24.5 21.292969 L 24.5 9.304688 L 22.75 11.058594 L 22.75 21.296875 C 22.75 22.105469 22.097656 22.757812 21.292969 22.757812 L 6.707031 22.757812 C 5.902344 22.757812 5.25 22.105469 5.25 21.296875 L 5.25 6.707031 C 5.25 5.902344 5.902344 5.25 6.707031 5.25 L 21.292969 5.25 C 21.683594 5.25 22.0625 5.410156 22.335938 5.695312 L 23.570312 4.457031 C 22.972656 3.84375 22.148438 3.5 21.292969 3.5 Z M 24.191406 5.824219 C 23.964844 5.832031 23.75 5.925781 23.589844 6.089844 L 12.542969 17.136719 L 10.242188 14.839844 C 9.902344 14.5 9.347656 14.5 9.007812 14.839844 C 8.664062 15.183594 8.664062 15.734375 9.007812 16.078125 L 11.921875 18.992188 C 12.265625 19.335938 12.816406 19.335938 13.160156 18.992188 L 24.828125 7.328125 C 25.085938 7.074219 25.164062 6.691406 25.023438 6.359375 C 24.882812 6.027344 24.550781 5.816406 24.191406 5.824219 Z M 24.191406 5.824219 "/>
</g>
</svg>
