<?xml version="1.0" encoding="UTF-8"?>
<svg xmlns="http://www.w3.org/2000/svg" xmlns:xlink="http://www.w3.org/1999/xlink" width="30px" height="30px" viewBox="0 0 30 30" version="1.1">
<g id="surface1">
<path style=" stroke:none;fill-rule:nonzero;fill:rgb(11.764706%,19.215686%,31.372549%);fill-opacity:1;" d="M 7.1875 3.75 C 5.292969 3.757812 3.757812 5.292969 3.75 7.1875 L 3.75 22.8125 C 3.757812 24.707031 5.292969 26.242188 7.1875 26.25 L 22.8125 26.25 C 24.707031 26.242188 26.242188 24.707031 26.25 22.8125 L 26.25 9.96875 L 24.375 11.851562 L 24.375 22.820312 C 24.375 23.683594 23.675781 24.382812 22.8125 24.382812 L 7.1875 24.382812 C 6.324219 24.382812 5.625 23.683594 5.625 22.820312 L 5.625 7.1875 C 5.625 6.324219 6.324219 5.625 7.1875 5.625 L 22.8125 5.625 C 23.234375 5.625 23.636719 5.796875 23.929688 6.101562 L 25.253906 4.773438 C 24.613281 4.117188 23.730469 3.75 22.8125 3.75 Z M 25.921875 6.242188 C 25.675781 6.25 25.445312 6.351562 25.273438 6.523438 L 13.4375 18.363281 L 10.976562 15.898438 C 10.609375 15.535156 10.015625 15.535156 9.648438 15.898438 C 9.285156 16.265625 9.285156 16.859375 9.648438 17.226562 L 12.773438 20.351562 C 13.140625 20.714844 13.734375 20.714844 14.101562 20.351562 L 26.597656 7.851562 C 26.875 7.582031 26.960938 7.167969 26.808594 6.8125 C 26.660156 6.457031 26.304688 6.230469 25.917969 6.242188 Z M 25.921875 6.242188 "/>
</g>
</svg>
