<?xml version="1.0" encoding="UTF-8"?>
<svg xmlns="http://www.w3.org/2000/svg" xmlns:xlink="http://www.w3.org/1999/xlink" width="24px" height="24px" viewBox="0 0 24 24" version="1.1">
<g id="surface1">
<path style=" stroke:none;fill-rule:nonzero;fill:rgb(0%,0%,0%);fill-opacity:1;" d="M 22 19.085938 C 21.820312 17.359375 20.378906 16 18.652344 16 C 17.570312 16 16.550781 16.542969 15.921875 17.433594 C 15.800781 17.410156 15.675781 17.402344 15.550781 17.402344 C 14.574219 17.402344 13.707031 18.0625 13.417969 19.007812 C 12.613281 19.480469 12.105469 20.371094 12.105469 21.324219 C 12.105469 22.800781 13.277344 24 14.71875 24 L 19.257812 24 C 19.28125 24 19.308594 24 19.328125 23.996094 C 19.355469 24 19.378906 24 19.40625 24 L 21.222656 24 C 22.578125 24 23.683594 22.867188 23.683594 21.476562 C 23.683594 20.382812 22.992188 19.425781 22 19.085938 Z M 21.222656 23.15625 L 19.390625 23.15625 L 19.3125 23.152344 L 14.71875 23.15625 C 13.742188 23.15625 12.949219 22.335938 12.949219 21.324219 C 12.949219 20.621094 13.347656 19.972656 13.964844 19.667969 L 14.148438 19.574219 L 14.191406 19.375 C 14.332031 18.71875 14.902344 18.242188 15.550781 18.242188 C 15.695312 18.242188 15.839844 18.265625 15.980469 18.3125 L 16.308594 18.421875 L 16.480469 18.125 C 16.941406 17.320312 17.753906 16.84375 18.652344 16.84375 C 20.027344 16.84375 21.160156 18 21.175781 19.421875 L 21.179688 19.761719 L 21.519531 19.828125 C 22.285156 19.976562 22.84375 20.671875 22.84375 21.476562 C 22.84375 22.402344 22.113281 23.15625 21.222656 23.15625 Z M 21.222656 23.15625 "/>
<path style=" stroke:none;fill-rule:nonzero;fill:rgb(0%,0%,0%);fill-opacity:1;" d="M 12.382812 18.183594 C 12.394531 18.15625 12.414062 18.132812 12.425781 18.105469 L 13.007812 17.261719 C 13.613281 16.605469 14.449219 16.195312 15.355469 16.144531 C 16.226562 15.246094 17.417969 14.738281 18.652344 14.738281 C 20.652344 14.738281 22.4375 16.089844 23.050781 18.003906 L 23.050781 5.125 C 23.050781 2.300781 20.753906 0 17.925781 0 L 5.441406 0 C 2.617188 0 0.316406 2.300781 0.316406 5.125 L 0.316406 17.609375 C 0.316406 20.4375 2.617188 22.738281 5.441406 22.738281 L 11.105469 22.738281 C 10.9375 22.296875 10.84375 21.820312 10.84375 21.324219 C 10.84375 20.097656 11.414062 18.933594 12.382812 18.183594 Z M 9.027344 15.851562 L 6.140625 19.21875 C 6.054688 19.316406 5.9375 19.367188 5.820312 19.367188 C 5.730469 19.367188 5.640625 19.339844 5.566406 19.285156 L 3.640625 17.839844 C 3.457031 17.699219 3.417969 17.4375 3.558594 17.25 C 3.699219 17.066406 3.960938 17.027344 4.148438 17.167969 L 5.757812 18.375 L 8.386719 15.304688 C 8.539062 15.128906 8.804688 15.109375 8.980469 15.261719 C 9.15625 15.410156 9.175781 15.675781 9.027344 15.851562 Z M 9.027344 9.535156 L 6.140625 12.90625 C 6.054688 13.003906 5.9375 13.050781 5.820312 13.050781 C 5.730469 13.050781 5.640625 13.023438 5.566406 12.96875 L 3.640625 11.523438 C 3.457031 11.386719 3.417969 11.121094 3.558594 10.9375 C 3.699219 10.75 3.960938 10.710938 4.148438 10.851562 L 5.757812 12.058594 L 8.386719 8.988281 C 8.539062 8.8125 8.804688 8.792969 8.980469 8.945312 C 9.15625 9.09375 9.175781 9.359375 9.027344 9.535156 Z M 9.027344 3.640625 L 6.140625 7.011719 C 6.054688 7.105469 5.9375 7.15625 5.820312 7.15625 C 5.730469 7.15625 5.640625 7.128906 5.566406 7.074219 L 3.640625 5.628906 C 3.457031 5.492188 3.417969 5.226562 3.558594 5.039062 C 3.699219 4.855469 3.960938 4.816406 4.148438 4.957031 L 5.757812 6.164062 L 8.386719 3.09375 C 8.539062 2.917969 8.804688 2.898438 8.980469 3.050781 C 9.15625 3.199219 9.175781 3.464844 9.027344 3.640625 Z M 11.683594 5.050781 L 19.261719 5.050781 C 19.496094 5.050781 19.683594 5.242188 19.683594 5.472656 C 19.683594 5.707031 19.496094 5.894531 19.261719 5.894531 L 11.683594 5.894531 C 11.453125 5.894531 11.261719 5.707031 11.261719 5.472656 C 11.261719 5.242188 11.453125 5.050781 11.683594 5.050781 Z M 11.261719 11.367188 C 11.261719 11.136719 11.453125 10.949219 11.683594 10.949219 L 19.261719 10.949219 C 19.496094 10.949219 19.683594 11.136719 19.683594 11.367188 C 19.683594 11.601562 19.496094 11.789062 19.261719 11.789062 L 11.683594 11.789062 C 11.453125 11.789062 11.261719 11.601562 11.261719 11.367188 Z M 11.261719 11.367188 "/>
</g>
</svg>
