<?xml version="1.0" encoding="UTF-8"?>
<svg xmlns="http://www.w3.org/2000/svg" xmlns:xlink="http://www.w3.org/1999/xlink" width="30px" height="30px" viewBox="0 0 30 30" version="1.1">
<g id="surface1">
<path style=" stroke:none;fill-rule:nonzero;fill:rgb(11.764706%,19.215686%,31.372549%);fill-opacity:1;" d="M 7.1875 3.75 C 5.292969 3.757812 3.757812 5.292969 3.75 7.1875 L 3.75 22.8125 C 3.757812 24.707031 5.292969 26.242188 7.1875 26.25 L 22.8125 26.25 C 24.707031 26.242188 26.242188 24.707031 26.25 22.8125 L 26.25 7.1875 C 26.242188 5.292969 24.707031 3.757812 22.8125 3.75 Z M 7.1875 5.625 L 22.8125 5.625 C 23.226562 5.621094 23.628906 5.785156 23.921875 6.078125 C 24.214844 6.371094 24.378906 6.773438 24.375 7.1875 L 24.375 22.8125 C 24.378906 23.226562 24.214844 23.628906 23.921875 23.921875 C 23.628906 24.214844 23.226562 24.378906 22.8125 24.375 L 7.1875 24.375 C 6.773438 24.378906 6.371094 24.214844 6.078125 23.921875 C 5.785156 23.628906 5.621094 23.226562 5.625 22.8125 L 5.625 7.1875 C 5.621094 6.773438 5.785156 6.371094 6.078125 6.078125 C 6.371094 5.785156 6.773438 5.621094 7.1875 5.625 Z M 7.1875 5.625 "/>
</g>
</svg>
