<?xml version="1.0" encoding="UTF-8"?>
<svg xmlns="http://www.w3.org/2000/svg" xmlns:xlink="http://www.w3.org/1999/xlink" width="28px" height="28px" viewBox="0 0 28 28" version="1.1">
<g id="surface1">
<path style=" stroke:none;fill-rule:nonzero;fill:rgb(11.764706%,19.215686%,31.372549%);fill-opacity:1;" d="M 6.707031 3.5 C 4.9375 3.507812 3.507812 4.9375 3.5 6.707031 L 3.5 21.292969 C 3.507812 23.0625 4.9375 24.492188 6.707031 24.5 L 21.292969 24.5 C 23.0625 24.492188 24.492188 23.0625 24.5 21.292969 L 24.5 6.707031 C 24.492188 4.9375 23.0625 3.507812 21.292969 3.5 Z M 6.707031 5.25 L 21.292969 5.25 C 21.679688 5.246094 22.050781 5.398438 22.328125 5.671875 C 22.601562 5.949219 22.753906 6.320312 22.75 6.707031 L 22.75 21.292969 C 22.753906 21.679688 22.601562 22.050781 22.328125 22.328125 C 22.050781 22.601562 21.679688 22.753906 21.292969 22.75 L 6.707031 22.75 C 6.320312 22.753906 5.949219 22.601562 5.671875 22.328125 C 5.398438 22.050781 5.246094 21.679688 5.25 21.292969 L 5.25 6.707031 C 5.246094 6.320312 5.398438 5.949219 5.671875 5.671875 C 5.949219 5.398438 6.320312 5.246094 6.707031 5.25 Z M 6.707031 5.25 "/>
</g>
</svg>
