<?xml version="1.0" encoding="UTF-8"?>
<svg xmlns="http://www.w3.org/2000/svg" xmlns:xlink="http://www.w3.org/1999/xlink" width="24px" height="24px" viewBox="0 0 24 24" version="1.1">
<g id="surface1">
<path style=" stroke:none;fill-rule:nonzero;fill:rgb(0%,0%,0%);fill-opacity:1;" d="M 12 0 C 5.382812 0 0 5.382812 0 12 C 0 18.617188 5.382812 24 12 24 C 18.617188 24 24 18.617188 24 12 C 24 5.382812 18.617188 0 12 0 Z M 12 21 C 7.035156 21 3 16.964844 3 12 C 3 7.035156 7.035156 3 12 3 C 16.964844 3 21 7.035156 21 12 C 21 16.964844 16.964844 21 12 21 Z M 12 21 "/>
<path style=" stroke:none;fill-rule:nonzero;fill:rgb(0%,0%,0%);fill-opacity:1;" d="M 13.5 6 L 10.5 6 L 10.5 10.5 L 6 10.5 L 6 13.5 L 10.5 13.5 L 10.5 18 L 13.5 18 L 13.5 13.5 L 18 13.5 L 18 10.5 L 13.5 10.5 Z M 13.5 6 "/>
</g>
</svg>
