<?xml version="1.0" encoding="UTF-8"?>
<svg xmlns="http://www.w3.org/2000/svg" xmlns:xlink="http://www.w3.org/1999/xlink" width="24px" height="24px" viewBox="0 0 24 24" version="1.1">
<g id="surface1">
<path style=" stroke:none;fill-rule:nonzero;fill:rgb(0%,0%,0%);fill-opacity:1;" d="M 23.625 13.964844 L 22.402344 12.746094 C 21.921875 12.261719 21.078125 12.261719 20.59375 12.746094 L 14 19.339844 L 13.089844 22.675781 L 12.867188 22.898438 C 12.703125 23.0625 12.699219 23.332031 12.863281 23.5 L 12.863281 23.507812 L 12.871094 23.507812 C 12.953125 23.585938 13.0625 23.628906 13.171875 23.628906 C 13.28125 23.628906 13.390625 23.585938 13.472656 23.503906 L 13.695312 23.28125 L 17.03125 22.371094 L 23.625 15.777344 C 24.125 15.277344 24.125 14.464844 23.625 13.964844 Z M 14.988281 19.5625 L 19.378906 15.175781 L 21.195312 16.992188 L 16.808594 21.382812 Z M 14.601562 20.390625 L 15.980469 21.769531 L 14.082031 22.285156 Z M 23.019531 15.171875 L 21.800781 16.386719 L 19.984375 14.570312 L 21.199219 13.351562 C 21.359375 13.191406 21.640625 13.191406 21.796875 13.351562 L 23.019531 14.574219 C 23.183594 14.738281 23.183594 15.003906 23.019531 15.171875 Z M 23.019531 15.171875 "/>
<path style=" stroke:none;fill-rule:nonzero;fill:rgb(0%,0%,0%);fill-opacity:1;" d="M 11.570312 18.800781 C 11.335938 18.800781 11.144531 18.609375 11.144531 18.371094 C 11.144531 18.132812 11.335938 17.941406 11.570312 17.941406 L 13.578125 17.941406 L 19.152344 12.371094 L 11.570312 12.371094 C 11.335938 12.371094 11.144531 12.179688 11.144531 11.941406 C 11.144531 11.707031 11.335938 11.515625 11.570312 11.515625 L 19.285156 11.515625 C 19.484375 11.515625 19.640625 11.648438 19.691406 11.832031 C 20.175781 11.351562 20.816406 11.085938 21.5 11.085938 C 22.109375 11.085938 22.683594 11.296875 23.144531 11.683594 L 23.144531 5.589844 C 23.144531 2.710938 20.800781 0.371094 17.925781 0.371094 L 5.21875 0.371094 C 2.339844 0.371094 0 2.710938 0 5.589844 L 0 18.296875 C 0 21.171875 2.339844 23.511719 5.21875 23.511719 L 11.527344 23.511719 L 12.816406 18.800781 Z M 11.570312 5.511719 L 19.285156 5.511719 C 19.523438 5.511719 19.714844 5.707031 19.714844 5.941406 C 19.714844 6.179688 19.523438 6.371094 19.285156 6.371094 L 11.570312 6.371094 C 11.335938 6.371094 11.144531 6.179688 11.144531 5.941406 C 11.144531 5.707031 11.335938 5.511719 11.570312 5.511719 Z M 8.867188 16.507812 L 5.925781 19.933594 C 5.84375 20.035156 5.722656 20.085938 5.601562 20.085938 C 5.511719 20.085938 5.421875 20.058594 5.34375 20 L 3.386719 18.53125 C 3.195312 18.386719 3.15625 18.117188 3.300781 17.929688 C 3.441406 17.742188 3.710938 17.703125 3.898438 17.84375 L 5.539062 19.074219 L 8.214844 15.949219 C 8.371094 15.769531 8.640625 15.75 8.820312 15.902344 C 9 16.058594 9.019531 16.328125 8.867188 16.507812 Z M 8.867188 10.078125 L 5.925781 13.507812 C 5.84375 13.605469 5.722656 13.65625 5.601562 13.65625 C 5.511719 13.65625 5.421875 13.628906 5.34375 13.570312 L 3.386719 12.101562 C 3.195312 11.960938 3.15625 11.691406 3.300781 11.5 C 3.441406 11.3125 3.710938 11.273438 3.898438 11.417969 L 5.539062 12.644531 L 8.214844 9.519531 C 8.371094 9.339844 8.640625 9.320312 8.820312 9.472656 C 9 9.628906 9.019531 9.898438 8.867188 10.078125 Z M 8.867188 4.078125 L 5.925781 7.507812 C 5.84375 7.605469 5.722656 7.65625 5.601562 7.65625 C 5.511719 7.65625 5.421875 7.628906 5.34375 7.570312 L 3.386719 6.101562 C 3.195312 5.960938 3.15625 5.691406 3.300781 5.5 C 3.441406 5.3125 3.710938 5.273438 3.898438 5.414062 L 5.539062 6.644531 L 8.214844 3.519531 C 8.371094 3.339844 8.640625 3.320312 8.820312 3.472656 C 9 3.628906 9.019531 3.898438 8.867188 4.078125 Z M 8.867188 4.078125 "/>
</g>
</svg>
